<svg width="885" height="194" viewBox="0 0 885 194" fill="none" xmlns="http://www.w3.org/2000/svg">
<path d="M196.472 40.4124H209.803V44.9612H201.088V49.3772H209.803V53.843H201.088V60.2678H209.803V64.8333H196.472V40.4124ZM213.655 46.7708H218.171V48.6135C219.2 47.7502 220.13 47.1526 220.96 46.8206C221.801 46.4775 222.659 46.3059 223.533 46.3059C225.326 46.3059 226.848 46.9312 228.098 48.1819C229.15 49.2444 229.675 50.816 229.675 52.8967V64.8333H225.193V56.9143C225.193 54.7561 225.093 53.3228 224.894 52.6145C224.706 51.9062 224.369 51.3694 223.882 51.0042C223.406 50.6278 222.813 50.4397 222.105 50.4397C221.187 50.4397 220.395 50.7496 219.731 51.3694C219.078 51.9781 218.624 52.8248 218.37 53.9094C218.237 54.4739 218.171 55.6969 218.171 57.5784V64.8333H213.655V46.7708ZM234.623 40.1135H239.138V46.7708H241.828V50.6721H239.138V64.8333H234.623V50.6721H232.299V46.7708H234.623V40.1135ZM243.206 46.7708H247.091V49.0452C247.511 48.1487 248.07 47.468 248.767 47.0032C249.465 46.5383 250.228 46.3059 251.058 46.3059C251.645 46.3059 252.259 46.4609 252.901 46.7708L251.49 50.6721C250.959 50.4065 250.522 50.2737 250.178 50.2737C249.481 50.2737 248.889 50.7053 248.402 51.5686C247.926 52.4319 247.688 54.1252 247.688 56.6487L247.705 57.5286V64.8333H243.206V46.7708ZM273.255 57.1135H258.695C258.905 58.3974 259.464 59.4211 260.372 60.1848C261.29 60.9374 262.458 61.3137 263.875 61.3137C265.568 61.3137 267.023 60.7216 268.241 59.5374L272.059 61.3303C271.107 62.6806 269.967 63.6822 268.639 64.3352C267.311 64.9771 265.734 65.2981 263.908 65.2981C261.075 65.2981 258.767 64.4071 256.985 62.6252C255.203 60.8323 254.312 58.5911 254.312 55.9016C254.312 53.1458 255.198 50.8603 256.968 49.0452C258.75 47.219 260.98 46.3059 263.659 46.3059C266.503 46.3059 268.816 47.219 270.598 49.0452C272.38 50.8603 273.271 53.262 273.271 56.2502L273.255 57.1135ZM268.706 53.5442C268.407 52.537 267.815 51.718 266.929 51.0872C266.055 50.4563 265.037 50.1409 263.875 50.1409C262.613 50.1409 261.506 50.495 260.554 51.2034C259.957 51.6461 259.403 52.4264 258.894 53.5442H268.706ZM290.288 46.7708H294.803V62.2434C294.803 65.2981 294.189 67.5448 292.961 68.9836C291.312 70.9316 288.827 71.9055 285.507 71.9055C283.736 71.9055 282.247 71.6842 281.041 71.2415C279.834 70.7987 278.816 70.1458 277.986 69.2825C277.156 68.4303 276.542 67.3899 276.143 66.1614H281.14C281.583 66.6705 282.153 67.0523 282.85 67.3069C283.548 67.5725 284.372 67.7053 285.324 67.7053C286.541 67.7053 287.521 67.5172 288.262 67.1409C289.004 66.7646 289.524 66.2776 289.823 65.6799C290.133 65.0823 290.288 64.053 290.288 62.592C289.491 63.3889 288.655 63.9644 287.781 64.3186C286.907 64.6617 285.916 64.8333 284.809 64.8333C282.385 64.8333 280.338 63.9589 278.667 62.2102C276.995 60.4615 276.16 58.248 276.16 55.5696C276.16 52.703 277.045 50.401 278.816 48.6633C280.421 47.0917 282.336 46.3059 284.56 46.3059C285.601 46.3059 286.58 46.4996 287.499 46.887C288.428 47.2633 289.358 47.8886 290.288 48.7629V46.7708ZM285.59 50.5393C284.162 50.5393 282.983 51.0208 282.053 51.9836C281.124 52.9355 280.659 54.1363 280.659 55.5862C280.659 57.0914 281.135 58.3254 282.087 59.2883C283.038 60.2512 284.234 60.7327 285.673 60.7327C287.078 60.7327 288.235 60.2623 289.142 59.3215C290.061 58.3808 290.52 57.1467 290.52 55.6194C290.52 54.1142 290.061 52.8912 289.142 51.9504C288.224 51.0097 287.039 50.5393 285.59 50.5393ZM312.733 46.7708H317.249V64.8333H312.733V62.9241C311.848 63.7652 310.957 64.3739 310.06 64.7502C309.175 65.1155 308.212 65.2981 307.172 65.2981C304.836 65.2981 302.816 64.3961 301.112 62.592C299.408 60.7769 298.555 58.5247 298.555 55.8352C298.555 53.0461 299.38 50.7607 301.029 48.9788C302.678 47.1969 304.681 46.3059 307.039 46.3059C308.123 46.3059 309.142 46.5107 310.093 46.9202C311.045 47.3297 311.925 47.9439 312.733 48.7629V46.7708ZM307.968 50.4895C306.563 50.4895 305.395 50.9875 304.466 51.9836C303.536 52.9687 303.071 54.2359 303.071 55.7854C303.071 57.3459 303.541 58.6298 304.482 59.637C305.434 60.6441 306.602 61.1477 307.985 61.1477C309.413 61.1477 310.597 60.6552 311.538 59.6702C312.479 58.6741 312.949 57.3736 312.949 55.7688C312.949 54.1972 312.479 52.9244 311.538 51.9504C310.597 50.9765 309.407 50.4895 307.968 50.4895ZM196.655 82.4124H210.65V84.8196H199.095V92.4563H210.55V94.8469H199.095V104.426H210.55V106.833H196.655V82.4124ZM212.426 88.7708H215.216L219.997 95.4612L224.778 88.7708H227.567L221.391 97.3538L228.347 106.833H225.525L219.997 99.2463L214.551 106.833H211.779L218.619 97.3538L212.426 88.7708ZM230.854 88.7708H233.162V92.0911C234.08 90.8293 235.137 89.8831 236.333 89.2522C237.528 88.6213 238.862 88.3059 240.334 88.3059C242.901 88.3059 245.098 89.2301 246.924 91.0784C248.751 92.9267 249.664 95.1513 249.664 97.7522C249.664 100.408 248.756 102.666 246.941 104.526C245.137 106.374 242.957 107.298 240.4 107.298C238.961 107.298 237.639 106.999 236.432 106.402C235.226 105.804 234.136 104.913 233.162 103.729V113.441H230.854V88.7708ZM240.151 90.5471C238.137 90.5471 236.438 91.2499 235.054 92.6555C233.682 94.0611 232.996 95.8098 232.996 97.9016C232.996 99.274 233.3 100.508 233.909 101.604C234.529 102.699 235.409 103.568 236.549 104.21C237.7 104.852 238.911 105.173 240.184 105.173C241.435 105.173 242.608 104.852 243.704 104.21C244.811 103.557 245.69 102.65 246.343 101.488C246.996 100.325 247.323 99.108 247.323 97.8352C247.323 96.5514 246.996 95.3339 246.343 94.1829C245.702 93.0318 244.833 92.1409 243.737 91.51C242.641 90.8681 241.446 90.5471 240.151 90.5471ZM253.15 88.7708H255.524V91.4104C256.232 90.37 256.98 89.5953 257.765 89.0862C258.551 88.566 259.37 88.3059 260.222 88.3059C260.864 88.3059 261.55 88.5107 262.281 88.9202L261.069 90.8792C260.582 90.6689 260.173 90.5637 259.841 90.5637C259.066 90.5637 258.319 90.8847 257.599 91.5266C256.88 92.1575 256.332 93.1425 255.956 94.4817C255.668 95.511 255.524 97.5917 255.524 100.724V106.833H253.15V88.7708ZM279.331 100.84L281.29 101.869C280.648 103.131 279.906 104.149 279.065 104.924C278.224 105.699 277.278 106.291 276.226 106.7C275.175 107.099 273.985 107.298 272.657 107.298C269.713 107.298 267.411 106.335 265.751 104.409C264.091 102.473 263.26 100.287 263.26 97.8518C263.26 95.5608 263.963 93.5188 265.369 91.7258C267.151 89.4459 269.536 88.3059 272.524 88.3059C275.601 88.3059 278.058 89.4736 279.895 91.8088C281.201 93.4579 281.865 95.5165 281.887 97.9846H265.651C265.695 100.087 266.365 101.814 267.66 103.164C268.955 104.503 270.554 105.173 272.458 105.173C273.376 105.173 274.267 105.013 275.131 104.692C276.005 104.371 276.746 103.945 277.355 103.413C277.964 102.882 278.622 102.024 279.331 100.84ZM279.331 95.9758C279.021 94.7362 278.567 93.7457 277.969 93.0042C277.383 92.2626 276.603 91.665 275.629 91.2112C274.655 90.7574 273.631 90.5305 272.557 90.5305C270.786 90.5305 269.265 91.1005 267.992 92.2405C267.062 93.0706 266.359 94.3157 265.883 95.9758H279.331ZM295.318 90.7463L293.824 92.2903C292.584 91.0839 291.372 90.4807 290.188 90.4807C289.436 90.4807 288.788 90.7297 288.246 91.2278C287.715 91.7258 287.449 92.3069 287.449 92.9709C287.449 93.5575 287.67 94.1165 288.113 94.6477C288.556 95.19 289.485 95.8264 290.902 96.5569C292.629 97.4534 293.802 98.3167 294.422 99.1467C295.03 99.9879 295.335 100.934 295.335 101.986C295.335 103.469 294.814 104.725 293.774 105.754C292.734 106.783 291.433 107.298 289.873 107.298C288.832 107.298 287.836 107.071 286.884 106.617C285.944 106.164 285.163 105.538 284.544 104.741L286.005 103.081C287.189 104.42 288.445 105.09 289.773 105.09C290.703 105.09 291.494 104.791 292.147 104.194C292.8 103.596 293.127 102.893 293.127 102.085C293.127 101.421 292.911 100.829 292.479 100.309C292.048 99.7997 291.074 99.1578 289.557 98.3831C287.93 97.5419 286.824 96.7118 286.237 95.8928C285.65 95.0738 285.357 94.1386 285.357 93.0872C285.357 91.7148 285.822 90.5748 286.752 89.6672C287.692 88.7597 288.877 88.3059 290.304 88.3059C291.965 88.3059 293.636 89.1194 295.318 90.7463ZM308.533 90.7463L307.039 92.2903C305.799 91.0839 304.587 90.4807 303.403 90.4807C302.65 90.4807 302.003 90.7297 301.461 91.2278C300.929 91.7258 300.664 92.3069 300.664 92.9709C300.664 93.5575 300.885 94.1165 301.328 94.6477C301.771 95.19 302.7 95.8264 304.117 96.5569C305.843 97.4534 307.017 98.3167 307.636 99.1467C308.245 99.9879 308.549 100.934 308.549 101.986C308.549 103.469 308.029 104.725 306.989 105.754C305.949 106.783 304.648 107.298 303.088 107.298C302.047 107.298 301.051 107.071 300.099 106.617C299.159 106.164 298.378 105.538 297.758 104.741L299.219 103.081C300.404 104.42 301.66 105.09 302.988 105.09C303.918 105.09 304.709 104.791 305.362 104.194C306.015 103.596 306.341 102.893 306.341 102.085C306.341 101.421 306.126 100.829 305.694 100.309C305.262 99.7997 304.288 99.1578 302.772 98.3831C301.145 97.5419 300.038 96.7118 299.452 95.8928C298.865 95.0738 298.572 94.1386 298.572 93.0872C298.572 91.7148 299.037 90.5748 299.966 89.6672C300.907 88.7597 302.091 88.3059 303.519 88.3059C305.179 88.3059 306.851 89.1194 308.533 90.7463ZM330.663 88.7708V106.833H328.372V103.729C327.398 104.913 326.302 105.804 325.085 106.402C323.878 106.999 322.556 107.298 321.117 107.298C318.56 107.298 316.374 106.374 314.559 104.526C312.755 102.666 311.853 100.408 311.853 97.7522C311.853 95.1513 312.766 92.9267 314.592 91.0784C316.419 89.2301 318.616 88.3059 321.183 88.3059C322.666 88.3059 324.006 88.6213 325.201 89.2522C326.407 89.8831 327.464 90.8293 328.372 92.0911V88.7708H330.663ZM321.366 90.5471C320.071 90.5471 318.876 90.8681 317.78 91.51C316.684 92.1409 315.81 93.0318 315.157 94.1829C314.515 95.3339 314.194 96.5514 314.194 97.8352C314.194 99.108 314.521 100.325 315.174 101.488C315.827 102.65 316.701 103.557 317.797 104.21C318.903 104.852 320.088 105.173 321.349 105.173C322.622 105.173 323.828 104.852 324.968 104.21C326.108 103.568 326.983 102.699 327.591 101.604C328.211 100.508 328.521 99.274 328.521 97.9016C328.521 95.8098 327.829 94.0611 326.446 92.6555C325.074 91.2499 323.38 90.5471 321.366 90.5471Z" fill="black"/>
<path d="M737.734 44.8789L734.48 47.9834C732.267 45.6481 729.777 44.4805 727.01 44.4805C724.674 44.4805 722.704 45.2773 721.1 46.8711C719.506 48.4648 718.709 50.4294 718.709 52.7646C718.709 54.3916 719.063 55.8359 719.771 57.0977C720.48 58.3594 721.481 59.3499 722.776 60.0693C724.071 60.7887 725.51 61.1484 727.093 61.1484C728.443 61.1484 729.677 60.8994 730.795 60.4014C731.913 59.8923 733.141 58.9736 734.48 57.6455L737.635 60.9326C735.831 62.6924 734.126 63.9154 732.521 64.6016C730.917 65.2767 729.085 65.6143 727.026 65.6143C723.23 65.6143 720.12 64.4134 717.696 62.0117C715.284 59.599 714.077 56.5111 714.077 52.748C714.077 50.3132 714.625 48.1494 715.721 46.2568C716.827 44.3643 718.405 42.8424 720.452 41.6914C722.511 40.5404 724.724 39.9648 727.093 39.9648C729.107 39.9648 731.044 40.391 732.903 41.2432C734.774 42.0954 736.384 43.3073 737.734 44.8789ZM749.804 46.4727C751.508 46.4727 753.107 46.8988 754.602 47.751C756.107 48.6032 757.28 49.7598 758.121 51.2207C758.962 52.6816 759.383 54.2588 759.383 55.9521C759.383 57.6566 758.957 59.2503 758.104 60.7334C757.263 62.2165 756.112 63.3786 754.651 64.2197C753.19 65.0498 751.58 65.4648 749.82 65.4648C747.23 65.4648 745.017 64.5462 743.18 62.709C741.354 60.8607 740.44 58.6195 740.44 55.9854C740.44 53.1631 741.475 50.8112 743.545 48.9297C745.36 47.2917 747.446 46.4727 749.804 46.4727ZM749.87 50.7393C748.465 50.7393 747.291 51.2318 746.351 52.2168C745.421 53.1908 744.956 54.4414 744.956 55.9688C744.956 57.5404 745.415 58.8132 746.334 59.7871C747.264 60.7611 748.437 61.248 749.854 61.248C751.27 61.248 752.449 60.7555 753.39 59.7705C754.33 58.7855 754.801 57.5182 754.801 55.9688C754.801 54.4193 754.336 53.1631 753.406 52.2002C752.488 51.2262 751.309 50.7393 749.87 50.7393ZM763.068 46.9375H767.617V49.0127C768.392 48.1605 769.25 47.5241 770.19 47.1035C771.142 46.6829 772.177 46.4727 773.295 46.4727C774.424 46.4727 775.442 46.7493 776.35 47.3027C777.257 47.8561 777.988 48.6641 778.541 49.7266C779.26 48.6641 780.14 47.8561 781.181 47.3027C782.232 46.7493 783.378 46.4727 784.617 46.4727C785.901 46.4727 787.03 46.7715 788.004 47.3691C788.978 47.9668 789.675 48.7471 790.096 49.71C790.527 50.6729 790.743 52.2389 790.743 54.4082V65H786.178V55.8359C786.178 53.7884 785.923 52.4049 785.414 51.6855C784.905 50.9551 784.141 50.5898 783.123 50.5898C782.348 50.5898 781.651 50.8112 781.031 51.2539C780.423 51.6966 779.969 52.3109 779.67 53.0967C779.371 53.8714 779.222 55.1221 779.222 56.8486V65H774.656V56.251C774.656 54.6351 774.535 53.4674 774.291 52.748C774.059 52.0176 773.704 51.4753 773.229 51.1211C772.753 50.7669 772.177 50.5898 771.502 50.5898C770.749 50.5898 770.063 50.8167 769.443 51.2705C768.835 51.7132 768.375 52.3385 768.065 53.1465C767.767 53.9544 767.617 55.2272 767.617 56.9648V65H763.068V46.9375ZM799.575 46.9375V48.9297C800.394 48.1107 801.28 47.4964 802.231 47.0869C803.183 46.6774 804.201 46.4727 805.286 46.4727C807.644 46.4727 809.647 47.3636 811.296 49.1455C812.945 50.9274 813.77 53.2129 813.77 56.002C813.77 58.6914 812.917 60.9437 811.213 62.7588C809.508 64.5628 807.489 65.4648 805.153 65.4648C804.113 65.4648 803.145 65.2822 802.248 64.917C801.352 64.5407 800.461 63.932 799.575 63.0908V71.6074H795.076V46.9375H799.575ZM804.34 50.6562C802.912 50.6562 801.728 51.1432 800.787 52.1172C799.846 53.0911 799.376 54.3639 799.376 55.9355C799.376 57.5404 799.846 58.8408 800.787 59.8369C801.728 60.8219 802.912 61.3145 804.34 61.3145C805.723 61.3145 806.885 60.8109 807.826 59.8037C808.778 58.7965 809.254 57.5127 809.254 55.9521C809.254 54.4027 808.789 53.1354 807.859 52.1504C806.93 51.1543 805.757 50.6562 804.34 50.6562ZM816.459 46.9375H820.344V49.2119C820.764 48.3154 821.323 47.6348 822.021 47.1699C822.718 46.7051 823.481 46.4727 824.312 46.4727C824.898 46.4727 825.512 46.6276 826.154 46.9375L824.743 50.8389C824.212 50.5732 823.775 50.4404 823.432 50.4404C822.734 50.4404 822.142 50.8721 821.655 51.7354C821.179 52.5986 820.941 54.292 820.941 56.8154L820.958 57.6953V65H816.459V46.9375ZM841.76 46.9375H846.275V65H841.76V63.0908C840.874 63.932 839.983 64.5407 839.087 64.917C838.201 65.2822 837.239 65.4648 836.198 65.4648C833.863 65.4648 831.843 64.5628 830.139 62.7588C828.434 60.9437 827.582 58.6914 827.582 56.002C827.582 53.2129 828.407 50.9274 830.056 49.1455C831.705 47.3636 833.708 46.4727 836.065 46.4727C837.15 46.4727 838.168 46.6774 839.12 47.0869C840.072 47.4964 840.952 48.1107 841.76 48.9297V46.9375ZM836.995 50.6562C835.59 50.6562 834.422 51.1543 833.492 52.1504C832.562 53.1354 832.098 54.4027 832.098 55.9521C832.098 57.5127 832.568 58.7965 833.509 59.8037C834.461 60.8109 835.628 61.3145 837.012 61.3145C838.439 61.3145 839.624 60.8219 840.564 59.8369C841.505 58.8408 841.976 57.5404 841.976 55.9355C841.976 54.3639 841.505 53.0911 840.564 52.1172C839.624 51.1432 838.434 50.6562 836.995 50.6562ZM712.948 102.451L715.023 101.206C716.484 103.896 718.172 105.24 720.087 105.24C720.906 105.24 721.675 105.052 722.395 104.676C723.114 104.288 723.662 103.774 724.038 103.132C724.414 102.49 724.603 101.809 724.603 101.09C724.603 100.271 724.326 99.4684 723.772 98.6826C723.009 97.598 721.614 96.292 719.589 94.7646C717.552 93.2262 716.285 92.1139 715.787 91.4277C714.924 90.2767 714.492 89.0316 714.492 87.6924C714.492 86.6299 714.747 85.6615 715.256 84.7871C715.765 83.9128 716.479 83.2266 717.397 82.7285C718.327 82.2194 719.334 81.9648 720.419 81.9648C721.57 81.9648 722.644 82.2526 723.64 82.8281C724.647 83.3926 725.709 84.4385 726.827 85.9658L724.835 87.4766C723.916 86.2591 723.131 85.4567 722.478 85.0693C721.836 84.682 721.133 84.4883 720.369 84.4883C719.384 84.4883 718.576 84.7871 717.945 85.3848C717.326 85.9824 717.016 86.7184 717.016 87.5928C717.016 88.124 717.126 88.6387 717.348 89.1367C717.569 89.6348 717.973 90.1771 718.56 90.7637C718.881 91.0736 719.932 91.887 721.714 93.2041C723.828 94.7646 725.278 96.1536 726.063 97.3711C726.849 98.5885 727.242 99.8115 727.242 101.04C727.242 102.811 726.567 104.349 725.217 105.655C723.878 106.961 722.245 107.614 720.319 107.614C718.836 107.614 717.492 107.221 716.285 106.436C715.079 105.639 713.966 104.311 712.948 102.451ZM747.23 101.007L749.189 102.036C748.548 103.298 747.806 104.316 746.965 105.091C746.124 105.866 745.177 106.458 744.126 106.867C743.075 107.266 741.885 107.465 740.557 107.465C737.613 107.465 735.311 106.502 733.65 104.576C731.99 102.639 731.16 100.453 731.16 98.0186C731.16 95.7275 731.863 93.6855 733.269 91.8926C735.05 89.6126 737.436 88.4727 740.424 88.4727C743.501 88.4727 745.958 89.6403 747.795 91.9756C749.101 93.6247 749.765 95.6833 749.787 98.1514H733.551C733.595 100.254 734.265 101.981 735.56 103.331C736.854 104.67 738.454 105.34 740.357 105.34C741.276 105.34 742.167 105.179 743.03 104.858C743.905 104.537 744.646 104.111 745.255 103.58C745.864 103.049 746.522 102.191 747.23 101.007ZM747.23 96.1426C746.921 94.903 746.467 93.9124 745.869 93.1709C745.283 92.4294 744.502 91.8317 743.528 91.3779C742.554 90.9242 741.531 90.6973 740.457 90.6973C738.686 90.6973 737.164 91.2673 735.892 92.4072C734.962 93.2373 734.259 94.4824 733.783 96.1426H747.23ZM769.692 88.9375H772.033V103.331C772.033 105.866 771.812 107.719 771.369 108.893C770.76 110.553 769.703 111.831 768.198 112.728C766.693 113.624 764.883 114.072 762.77 114.072C761.22 114.072 759.826 113.851 758.586 113.408C757.357 112.977 756.356 112.39 755.581 111.648C754.806 110.918 754.092 109.844 753.439 108.428H755.963C756.649 109.623 757.535 110.508 758.619 111.084C759.704 111.66 761.049 111.947 762.653 111.947C764.236 111.947 765.57 111.648 766.654 111.051C767.75 110.464 768.53 109.723 768.995 108.826C769.46 107.93 769.692 106.485 769.692 104.493V103.563C768.818 104.67 767.75 105.522 766.488 106.12C765.227 106.707 763.887 107 762.471 107C760.811 107 759.25 106.59 757.789 105.771C756.328 104.941 755.199 103.829 754.402 102.435C753.605 101.04 753.207 99.5072 753.207 97.8359C753.207 96.1647 753.622 94.6097 754.452 93.1709C755.282 91.721 756.428 90.5755 757.889 89.7344C759.361 88.8932 760.91 88.4727 762.537 88.4727C763.887 88.4727 765.144 88.7549 766.306 89.3193C767.479 89.8727 768.608 90.7913 769.692 92.0752V88.9375ZM762.836 90.7139C761.519 90.7139 760.296 91.0348 759.167 91.6768C758.038 92.3076 757.153 93.1875 756.511 94.3164C755.869 95.4342 755.548 96.6462 755.548 97.9521C755.548 99.9333 756.212 101.571 757.54 102.866C758.868 104.161 760.589 104.809 762.703 104.809C764.839 104.809 766.555 104.167 767.85 102.883C769.156 101.599 769.809 99.9111 769.809 97.8193C769.809 96.458 769.51 95.2461 768.912 94.1836C768.314 93.11 767.468 92.2633 766.372 91.6436C765.276 91.0238 764.098 90.7139 762.836 90.7139ZM776.715 88.9375H779.056V97.3711C779.056 99.4297 779.166 100.846 779.388 101.621C779.72 102.728 780.351 103.602 781.28 104.244C782.221 104.886 783.339 105.207 784.634 105.207C785.929 105.207 787.024 104.897 787.921 104.277C788.828 103.646 789.454 102.822 789.797 101.804C790.029 101.106 790.146 99.6289 790.146 97.3711V88.9375H792.52V97.8027C792.52 100.293 792.226 102.169 791.64 103.431C791.064 104.692 790.19 105.683 789.017 106.402C787.854 107.111 786.394 107.465 784.634 107.465C782.874 107.465 781.402 107.111 780.218 106.402C779.045 105.683 778.165 104.687 777.578 103.414C777.003 102.13 776.715 100.204 776.715 97.6367V88.9375ZM796.819 88.9375H799.193V91.5771C799.902 90.5368 800.649 89.762 801.435 89.2529C802.22 88.7327 803.039 88.4727 803.892 88.4727C804.534 88.4727 805.22 88.6774 805.95 89.0869L804.738 91.0459C804.251 90.8356 803.842 90.7305 803.51 90.7305C802.735 90.7305 801.988 91.0514 801.269 91.6934C800.549 92.3242 800.001 93.3092 799.625 94.6484C799.337 95.6777 799.193 97.7585 799.193 100.891V107H796.819V88.9375ZM825.922 88.9375V107H823.631V103.896C822.657 105.08 821.561 105.971 820.344 106.568C819.137 107.166 817.815 107.465 816.376 107.465C813.819 107.465 811.633 106.541 809.818 104.692C808.014 102.833 807.112 100.575 807.112 97.9189C807.112 95.318 808.025 93.0934 809.852 91.2451C811.678 89.3968 813.875 88.4727 816.442 88.4727C817.925 88.4727 819.265 88.7881 820.46 89.4189C821.666 90.0498 822.723 90.9961 823.631 92.2578V88.9375H825.922ZM816.625 90.7139C815.33 90.7139 814.135 91.0348 813.039 91.6768C811.943 92.3076 811.069 93.1986 810.416 94.3496C809.774 95.5007 809.453 96.7181 809.453 98.002C809.453 99.2747 809.78 100.492 810.433 101.654C811.086 102.816 811.96 103.724 813.056 104.377C814.162 105.019 815.347 105.34 816.608 105.34C817.881 105.34 819.088 105.019 820.228 104.377C821.368 103.735 822.242 102.866 822.851 101.771C823.47 100.675 823.78 99.4408 823.78 98.0684C823.78 95.9766 823.089 94.2279 821.705 92.8223C820.333 91.4167 818.639 90.7139 816.625 90.7139Z" fill="black"/>
<path d="M75.5 16C33.8693 16 0 52.3366 0 97C0 141.663 33.8693 178 75.5 178C117.131 178 151 141.663 151 97C151 52.3366 117.131 16 75.5 16ZM100.362 135.127L67.95 100.353V48.4H83.05V93.6466L111.038 123.673L100.362 135.127V135.127Z" fill="black"/>
<path fill-rule="evenodd" clip-rule="evenodd" d="M592.5 13C585.255 13 573.149 15.7825 561.756 18.88C550.101 22.03 538.352 25.7575 531.443 28.015C528.554 28.9689 525.993 30.7184 524.054 33.0624C522.115 35.4063 520.876 38.2498 520.481 41.266C514.223 88.2745 528.744 123.114 546.363 146.161C553.835 156.02 562.743 164.702 572.792 171.918C576.845 174.784 580.604 176.979 583.796 178.48C586.736 179.866 589.896 181 592.5 181C595.104 181 598.254 179.866 601.205 178.48C605.053 176.61 608.734 174.414 612.209 171.918C622.257 164.702 631.166 156.02 638.637 146.161C656.256 123.114 670.778 88.2745 664.52 41.266C664.125 38.2483 662.886 35.4032 660.947 33.0574C659.008 30.7117 656.447 28.9603 653.558 28.0045C643.528 24.716 633.421 21.6702 623.244 18.8695C611.852 15.793 599.745 13 592.5 13ZM592.5 65.5C596.22 65.4945 599.821 66.8055 602.667 69.2008C605.512 71.5962 607.418 74.9213 608.047 78.5873C608.676 82.2533 607.987 86.0235 606.102 89.2302C604.218 92.437 601.259 94.8732 597.75 96.1075L601.793 117.002C601.94 117.762 601.917 118.546 601.726 119.296C601.535 120.046 601.18 120.744 600.687 121.342C600.195 121.939 599.576 122.419 598.876 122.749C598.176 123.079 597.411 123.25 596.637 123.25H588.363C587.59 123.249 586.827 123.076 586.128 122.746C585.429 122.415 584.811 121.934 584.32 121.337C583.828 120.741 583.475 120.043 583.284 119.293C583.094 118.544 583.071 117.762 583.218 117.002L587.25 96.1075C583.741 94.8732 580.783 92.437 578.898 89.2302C577.013 86.0235 576.324 82.2533 576.953 78.5873C577.582 74.9213 579.488 71.5962 582.334 69.2008C585.179 66.8055 588.781 65.4945 592.5 65.5V65.5Z" fill="black"/>
<line x1="431.5" y1="50" x2="431.5" y2="144" stroke="black"/>
<path d="M713.264 141.324L714.484 140.592C715.344 142.174 716.337 142.965 717.463 142.965C717.945 142.965 718.397 142.854 718.82 142.633C719.243 142.405 719.566 142.102 719.787 141.725C720.008 141.347 720.119 140.947 720.119 140.523C720.119 140.042 719.956 139.57 719.631 139.107C719.182 138.469 718.361 137.701 717.17 136.803C715.972 135.898 715.227 135.243 714.934 134.84C714.426 134.163 714.172 133.43 714.172 132.643C714.172 132.018 714.322 131.448 714.621 130.934C714.921 130.419 715.34 130.016 715.881 129.723C716.428 129.423 717.02 129.273 717.658 129.273C718.335 129.273 718.967 129.443 719.553 129.781C720.145 130.113 720.77 130.729 721.428 131.627L720.256 132.516C719.715 131.799 719.253 131.327 718.869 131.1C718.492 130.872 718.078 130.758 717.629 130.758C717.049 130.758 716.574 130.934 716.203 131.285C715.839 131.637 715.656 132.07 715.656 132.584C715.656 132.896 715.721 133.199 715.852 133.492C715.982 133.785 716.219 134.104 716.564 134.449C716.753 134.632 717.372 135.11 718.42 135.885C719.663 136.803 720.516 137.62 720.979 138.336C721.441 139.052 721.672 139.771 721.672 140.494C721.672 141.536 721.275 142.441 720.48 143.209C719.693 143.977 718.732 144.361 717.6 144.361C716.727 144.361 715.936 144.13 715.227 143.668C714.517 143.199 713.863 142.418 713.264 141.324ZM724.309 133.375H725.686V138.336C725.686 139.547 725.751 140.38 725.881 140.836C726.076 141.487 726.447 142.001 726.994 142.379C727.548 142.757 728.205 142.945 728.967 142.945C729.729 142.945 730.373 142.763 730.9 142.398C731.434 142.027 731.802 141.542 732.004 140.943C732.141 140.533 732.209 139.664 732.209 138.336V133.375H733.605V138.59C733.605 140.055 733.433 141.158 733.088 141.9C732.749 142.643 732.235 143.225 731.545 143.648C730.861 144.065 730.002 144.273 728.967 144.273C727.932 144.273 727.066 144.065 726.369 143.648C725.679 143.225 725.161 142.639 724.816 141.891C724.478 141.135 724.309 140.003 724.309 138.492V133.375ZM747.238 133.375V144H745.891V142.174C745.318 142.87 744.673 143.395 743.957 143.746C743.247 144.098 742.469 144.273 741.623 144.273C740.119 144.273 738.833 143.73 737.766 142.643C736.704 141.549 736.174 140.221 736.174 138.658C736.174 137.128 736.711 135.82 737.785 134.732C738.859 133.645 740.152 133.102 741.662 133.102C742.535 133.102 743.322 133.287 744.025 133.658C744.735 134.029 745.357 134.586 745.891 135.328V133.375H747.238ZM741.77 134.42C741.008 134.42 740.305 134.609 739.66 134.986C739.016 135.357 738.501 135.882 738.117 136.559C737.74 137.236 737.551 137.952 737.551 138.707C737.551 139.456 737.743 140.172 738.127 140.855C738.511 141.539 739.025 142.073 739.67 142.457C740.321 142.835 741.018 143.023 741.76 143.023C742.508 143.023 743.218 142.835 743.889 142.457C744.559 142.079 745.074 141.568 745.432 140.924C745.796 140.279 745.979 139.553 745.979 138.746C745.979 137.516 745.572 136.487 744.758 135.66C743.951 134.833 742.954 134.42 741.77 134.42ZM766.184 135.582L765.1 136.256C764.162 135.012 762.883 134.391 761.262 134.391C759.966 134.391 758.889 134.807 758.029 135.641C757.176 136.474 756.75 137.486 756.75 138.678C756.75 139.452 756.945 140.182 757.336 140.865C757.733 141.549 758.273 142.079 758.957 142.457C759.647 142.835 760.419 143.023 761.271 143.023C762.834 143.023 764.11 142.402 765.1 141.158L766.184 141.871C765.676 142.633 764.992 143.225 764.133 143.648C763.28 144.065 762.307 144.273 761.213 144.273C759.533 144.273 758.14 143.74 757.033 142.672C755.926 141.604 755.373 140.305 755.373 138.775C755.373 137.747 755.63 136.793 756.145 135.914C756.665 135.029 757.378 134.339 758.283 133.844C759.188 133.349 760.201 133.102 761.32 133.102C762.023 133.102 762.701 133.209 763.352 133.424C764.009 133.639 764.566 133.919 765.021 134.264C765.477 134.609 765.865 135.048 766.184 135.582ZM773.85 133.102C775.484 133.102 776.838 133.694 777.912 134.879C778.889 135.96 779.377 137.239 779.377 138.717C779.377 140.201 778.859 141.5 777.824 142.613C776.796 143.72 775.471 144.273 773.85 144.273C772.222 144.273 770.891 143.72 769.855 142.613C768.827 141.5 768.312 140.201 768.312 138.717C768.312 137.245 768.801 135.969 769.777 134.889C770.852 133.697 772.209 133.102 773.85 133.102ZM773.85 134.439C772.717 134.439 771.743 134.859 770.93 135.699C770.116 136.539 769.709 137.555 769.709 138.746C769.709 139.514 769.895 140.23 770.266 140.895C770.637 141.559 771.138 142.073 771.77 142.438C772.401 142.796 773.094 142.975 773.85 142.975C774.605 142.975 775.298 142.796 775.93 142.438C776.561 142.073 777.062 141.559 777.434 140.895C777.805 140.23 777.99 139.514 777.99 138.746C777.99 137.555 777.58 136.539 776.76 135.699C775.946 134.859 774.976 134.439 773.85 134.439ZM781.916 133.375H783.273V135.211C783.749 134.534 784.237 134.039 784.738 133.727C785.428 133.31 786.154 133.102 786.916 133.102C787.43 133.102 787.919 133.202 788.381 133.404C788.843 133.606 789.221 133.876 789.514 134.215C789.807 134.547 790.061 135.025 790.275 135.65C790.731 134.817 791.301 134.186 791.984 133.756C792.668 133.32 793.404 133.102 794.191 133.102C794.927 133.102 795.575 133.287 796.135 133.658C796.701 134.029 797.121 134.547 797.395 135.211C797.668 135.875 797.805 136.871 797.805 138.199V144H796.408V138.199C796.408 137.06 796.327 136.279 796.164 135.855C796.001 135.426 795.721 135.081 795.324 134.82C794.934 134.56 794.465 134.43 793.918 134.43C793.254 134.43 792.645 134.625 792.092 135.016C791.545 135.406 791.145 135.927 790.891 136.578C790.637 137.229 790.51 138.316 790.51 139.84V144H789.152V138.561C789.152 137.278 789.071 136.409 788.908 135.953C788.752 135.491 788.475 135.123 788.078 134.85C787.681 134.57 787.209 134.43 786.662 134.43C786.031 134.43 785.438 134.622 784.885 135.006C784.338 135.383 783.931 135.895 783.664 136.539C783.404 137.184 783.273 138.17 783.273 139.498V144H781.916V133.375ZM800.715 133.375H802.072V135.328C802.613 134.586 803.234 134.029 803.938 133.658C804.641 133.287 805.425 133.102 806.291 133.102C807.801 133.102 809.094 133.645 810.168 134.732C811.242 135.82 811.779 137.128 811.779 138.658C811.779 140.221 811.245 141.549 810.178 142.643C809.117 143.73 807.834 144.273 806.33 144.273C805.484 144.273 804.706 144.098 803.996 143.746C803.286 143.395 802.645 142.87 802.072 142.174V147.887H800.715V133.375ZM806.184 134.42C804.999 134.42 803.999 134.833 803.186 135.66C802.378 136.487 801.975 137.516 801.975 138.746C801.975 139.553 802.154 140.279 802.512 140.924C802.876 141.568 803.394 142.079 804.064 142.457C804.742 142.835 805.454 143.023 806.203 143.023C806.939 143.023 807.629 142.835 808.273 142.457C808.924 142.073 809.442 141.539 809.826 140.855C810.21 140.172 810.402 139.456 810.402 138.707C810.402 137.952 810.21 137.236 809.826 136.559C809.449 135.882 808.938 135.357 808.293 134.986C807.648 134.609 806.945 134.42 806.184 134.42ZM813.83 133.375H815.227V134.928C815.643 134.316 816.083 133.86 816.545 133.561C817.007 133.255 817.489 133.102 817.99 133.102C818.368 133.102 818.771 133.222 819.201 133.463L818.488 134.615C818.202 134.492 817.961 134.43 817.766 134.43C817.31 134.43 816.87 134.618 816.447 134.996C816.024 135.367 815.702 135.947 815.48 136.734C815.311 137.34 815.227 138.564 815.227 140.406V144H813.83V133.375ZM830.949 133.375V144H829.602V142.174C829.029 142.87 828.384 143.395 827.668 143.746C826.958 144.098 826.18 144.273 825.334 144.273C823.83 144.273 822.544 143.73 821.477 142.643C820.415 141.549 819.885 140.221 819.885 138.658C819.885 137.128 820.422 135.82 821.496 134.732C822.57 133.645 823.863 133.102 825.373 133.102C826.245 133.102 827.033 133.287 827.736 133.658C828.446 134.029 829.068 134.586 829.602 135.328V133.375H830.949ZM825.48 134.42C824.719 134.42 824.016 134.609 823.371 134.986C822.727 135.357 822.212 135.882 821.828 136.559C821.451 137.236 821.262 137.952 821.262 138.707C821.262 139.456 821.454 140.172 821.838 140.855C822.222 141.539 822.736 142.073 823.381 142.457C824.032 142.835 824.729 143.023 825.471 143.023C826.219 143.023 826.929 142.835 827.6 142.457C828.27 142.079 828.785 141.568 829.143 140.924C829.507 140.279 829.689 139.553 829.689 138.746C829.689 137.516 829.283 136.487 828.469 135.66C827.661 134.833 826.665 134.42 825.48 134.42ZM848.527 140.475L849.68 141.08C849.302 141.822 848.866 142.421 848.371 142.877C847.876 143.333 847.32 143.681 846.701 143.922C846.083 144.156 845.383 144.273 844.602 144.273C842.87 144.273 841.516 143.707 840.539 142.574C839.562 141.435 839.074 140.149 839.074 138.717C839.074 137.369 839.488 136.168 840.314 135.113C841.363 133.772 842.766 133.102 844.523 133.102C846.333 133.102 847.779 133.788 848.859 135.162C849.628 136.132 850.018 137.343 850.031 138.795H840.48C840.507 140.032 840.9 141.048 841.662 141.842C842.424 142.63 843.365 143.023 844.484 143.023C845.025 143.023 845.549 142.929 846.057 142.74C846.571 142.551 847.007 142.301 847.365 141.988C847.723 141.676 848.111 141.171 848.527 140.475ZM848.527 137.613C848.345 136.884 848.078 136.301 847.727 135.865C847.382 135.429 846.923 135.077 846.35 134.811C845.777 134.544 845.174 134.41 844.543 134.41C843.501 134.41 842.606 134.745 841.857 135.416C841.311 135.904 840.897 136.637 840.617 137.613H848.527ZM857.932 134.537L857.053 135.445C856.324 134.736 855.611 134.381 854.914 134.381C854.471 134.381 854.09 134.527 853.771 134.82C853.459 135.113 853.303 135.455 853.303 135.846C853.303 136.191 853.433 136.52 853.693 136.832C853.954 137.151 854.501 137.525 855.334 137.955C856.35 138.482 857.04 138.99 857.404 139.479C857.762 139.973 857.941 140.53 857.941 141.148C857.941 142.021 857.635 142.76 857.023 143.365C856.411 143.971 855.646 144.273 854.729 144.273C854.117 144.273 853.531 144.14 852.971 143.873C852.417 143.606 851.958 143.238 851.594 142.77L852.453 141.793C853.15 142.581 853.889 142.975 854.67 142.975C855.217 142.975 855.682 142.799 856.066 142.447C856.451 142.096 856.643 141.682 856.643 141.207C856.643 140.816 856.516 140.468 856.262 140.162C856.008 139.863 855.435 139.485 854.543 139.029C853.586 138.535 852.935 138.046 852.59 137.564C852.245 137.083 852.072 136.533 852.072 135.914C852.072 135.107 852.346 134.436 852.893 133.902C853.446 133.368 854.143 133.102 854.982 133.102C855.959 133.102 856.942 133.58 857.932 134.537ZM861.555 129.43H862.932V133.375H865.1V134.547H862.932V144H861.555V134.547H859.689V133.375H861.555V129.43ZM877.727 133.375V144H876.379V142.174C875.806 142.87 875.161 143.395 874.445 143.746C873.736 144.098 872.958 144.273 872.111 144.273C870.607 144.273 869.322 143.73 868.254 142.643C867.193 141.549 866.662 140.221 866.662 138.658C866.662 137.128 867.199 135.82 868.273 134.732C869.348 133.645 870.64 133.102 872.15 133.102C873.023 133.102 873.811 133.287 874.514 133.658C875.223 134.029 875.845 134.586 876.379 135.328V133.375H877.727ZM872.258 134.42C871.496 134.42 870.793 134.609 870.148 134.986C869.504 135.357 868.99 135.882 868.605 136.559C868.228 137.236 868.039 137.952 868.039 138.707C868.039 139.456 868.231 140.172 868.615 140.855C868.999 141.539 869.514 142.073 870.158 142.457C870.809 142.835 871.506 143.023 872.248 143.023C872.997 143.023 873.706 142.835 874.377 142.457C875.048 142.079 875.562 141.568 875.92 140.924C876.285 140.279 876.467 139.553 876.467 138.746C876.467 137.516 876.06 136.487 875.246 135.66C874.439 134.833 873.443 134.42 872.258 134.42ZM873.107 128.395H875.207L872.326 131.402H870.979L873.107 128.395ZM719.865 159.537L718.986 160.445C718.257 159.736 717.544 159.381 716.848 159.381C716.405 159.381 716.024 159.527 715.705 159.82C715.393 160.113 715.236 160.455 715.236 160.846C715.236 161.191 715.367 161.52 715.627 161.832C715.887 162.151 716.434 162.525 717.268 162.955C718.283 163.482 718.973 163.99 719.338 164.479C719.696 164.973 719.875 165.53 719.875 166.148C719.875 167.021 719.569 167.76 718.957 168.365C718.345 168.971 717.58 169.273 716.662 169.273C716.05 169.273 715.464 169.14 714.904 168.873C714.351 168.606 713.892 168.238 713.527 167.77L714.387 166.793C715.083 167.581 715.822 167.975 716.604 167.975C717.15 167.975 717.616 167.799 718 167.447C718.384 167.096 718.576 166.682 718.576 166.207C718.576 165.816 718.449 165.468 718.195 165.162C717.941 164.863 717.368 164.485 716.477 164.029C715.52 163.535 714.868 163.046 714.523 162.564C714.178 162.083 714.006 161.533 714.006 160.914C714.006 160.107 714.279 159.436 714.826 158.902C715.38 158.368 716.076 158.102 716.916 158.102C717.893 158.102 718.876 158.58 719.865 159.537ZM731.242 165.475L732.395 166.08C732.017 166.822 731.581 167.421 731.086 167.877C730.591 168.333 730.035 168.681 729.416 168.922C728.798 169.156 728.098 169.273 727.316 169.273C725.585 169.273 724.23 168.707 723.254 167.574C722.277 166.435 721.789 165.149 721.789 163.717C721.789 162.369 722.202 161.168 723.029 160.113C724.077 158.772 725.48 158.102 727.238 158.102C729.048 158.102 730.493 158.788 731.574 160.162C732.342 161.132 732.733 162.343 732.746 163.795H723.195C723.221 165.032 723.615 166.048 724.377 166.842C725.139 167.63 726.079 168.023 727.199 168.023C727.74 168.023 728.264 167.929 728.771 167.74C729.286 167.551 729.722 167.301 730.08 166.988C730.438 166.676 730.826 166.171 731.242 165.475ZM731.242 162.613C731.06 161.884 730.793 161.301 730.441 160.865C730.096 160.429 729.637 160.077 729.064 159.811C728.492 159.544 727.889 159.41 727.258 159.41C726.216 159.41 725.321 159.745 724.572 160.416C724.025 160.904 723.612 161.637 723.332 162.613H731.242ZM744.455 158.375H745.832V166.842C745.832 168.333 745.702 169.423 745.441 170.113C745.083 171.09 744.462 171.842 743.576 172.369C742.691 172.896 741.626 173.16 740.383 173.16C739.471 173.16 738.651 173.03 737.922 172.77C737.199 172.516 736.61 172.171 736.154 171.734C735.699 171.305 735.279 170.673 734.895 169.84H736.379C736.783 170.543 737.303 171.064 737.941 171.402C738.579 171.741 739.37 171.91 740.314 171.91C741.245 171.91 742.03 171.734 742.668 171.383C743.312 171.038 743.771 170.602 744.045 170.074C744.318 169.547 744.455 168.697 744.455 167.525V166.979C743.941 167.63 743.312 168.131 742.57 168.482C741.828 168.827 741.04 169 740.207 169C739.23 169 738.312 168.759 737.453 168.277C736.594 167.789 735.93 167.135 735.461 166.314C734.992 165.494 734.758 164.592 734.758 163.609C734.758 162.626 735.002 161.712 735.49 160.865C735.979 160.012 736.652 159.339 737.512 158.844C738.378 158.349 739.289 158.102 740.246 158.102C741.04 158.102 741.779 158.268 742.463 158.6C743.153 158.925 743.817 159.465 744.455 160.221V158.375ZM740.422 159.42C739.647 159.42 738.928 159.609 738.264 159.986C737.6 160.357 737.079 160.875 736.701 161.539C736.324 162.197 736.135 162.91 736.135 163.678C736.135 164.843 736.525 165.807 737.307 166.568C738.088 167.33 739.1 167.711 740.344 167.711C741.6 167.711 742.609 167.333 743.371 166.578C744.139 165.823 744.523 164.83 744.523 163.6C744.523 162.799 744.348 162.086 743.996 161.461C743.645 160.829 743.146 160.331 742.502 159.967C741.857 159.602 741.164 159.42 740.422 159.42ZM748.586 158.375H749.963V163.336C749.963 164.547 750.028 165.38 750.158 165.836C750.354 166.487 750.725 167.001 751.271 167.379C751.825 167.757 752.482 167.945 753.244 167.945C754.006 167.945 754.65 167.763 755.178 167.398C755.712 167.027 756.079 166.542 756.281 165.943C756.418 165.533 756.486 164.664 756.486 163.336V158.375H757.883V163.59C757.883 165.055 757.71 166.158 757.365 166.9C757.027 167.643 756.512 168.225 755.822 168.648C755.139 169.065 754.279 169.273 753.244 169.273C752.209 169.273 751.343 169.065 750.646 168.648C749.956 168.225 749.439 167.639 749.094 166.891C748.755 166.135 748.586 165.003 748.586 163.492V158.375ZM760.412 158.375H761.809V159.928C762.225 159.316 762.665 158.86 763.127 158.561C763.589 158.255 764.071 158.102 764.572 158.102C764.95 158.102 765.354 158.222 765.783 158.463L765.07 159.615C764.784 159.492 764.543 159.43 764.348 159.43C763.892 159.43 763.452 159.618 763.029 159.996C762.606 160.367 762.284 160.947 762.062 161.734C761.893 162.34 761.809 163.564 761.809 165.406V169H760.412V158.375ZM777.531 158.375V169H776.184V167.174C775.611 167.87 774.966 168.395 774.25 168.746C773.54 169.098 772.762 169.273 771.916 169.273C770.412 169.273 769.126 168.73 768.059 167.643C766.997 166.549 766.467 165.221 766.467 163.658C766.467 162.128 767.004 160.82 768.078 159.732C769.152 158.645 770.445 158.102 771.955 158.102C772.827 158.102 773.615 158.287 774.318 158.658C775.028 159.029 775.65 159.586 776.184 160.328V158.375H777.531ZM772.062 159.42C771.301 159.42 770.598 159.609 769.953 159.986C769.309 160.357 768.794 160.882 768.41 161.559C768.033 162.236 767.844 162.952 767.844 163.707C767.844 164.456 768.036 165.172 768.42 165.855C768.804 166.539 769.318 167.073 769.963 167.457C770.614 167.835 771.311 168.023 772.053 168.023C772.801 168.023 773.511 167.835 774.182 167.457C774.852 167.079 775.367 166.568 775.725 165.924C776.089 165.279 776.271 164.553 776.271 163.746C776.271 162.516 775.865 161.487 775.051 160.66C774.243 159.833 773.247 159.42 772.062 159.42Z" fill="black"/>
<path d="M195.758 130.635H203.99V132.051H197.193V136.543H203.932V137.949H197.193V143.584H203.932V145H195.758V130.635ZM206.246 134.375H207.613V136.279C208.16 135.55 208.766 135.007 209.43 134.648C210.094 134.284 210.816 134.102 211.598 134.102C212.392 134.102 213.095 134.303 213.707 134.707C214.326 135.111 214.781 135.654 215.074 136.338C215.367 137.021 215.514 138.086 215.514 139.531V145H214.156V139.932C214.156 138.708 214.104 137.891 214 137.48C213.837 136.777 213.531 136.25 213.082 135.898C212.633 135.54 212.047 135.361 211.324 135.361C210.497 135.361 209.755 135.635 209.098 136.182C208.447 136.729 208.017 137.406 207.809 138.213C207.678 138.74 207.613 139.704 207.613 141.104V145H206.246V134.375ZM219.645 130.43H221.021V134.375H223.189V135.547H221.021V145H219.645V135.547H217.779V134.375H219.645V130.43ZM224.713 134.375H226.109V135.928C226.526 135.316 226.965 134.86 227.428 134.561C227.89 134.255 228.372 134.102 228.873 134.102C229.251 134.102 229.654 134.222 230.084 134.463L229.371 135.615C229.085 135.492 228.844 135.43 228.648 135.43C228.193 135.43 227.753 135.618 227.33 135.996C226.907 136.367 226.585 136.947 226.363 137.734C226.194 138.34 226.109 139.564 226.109 141.406V145H224.713V134.375ZM240.113 141.475L241.266 142.08C240.888 142.822 240.452 143.421 239.957 143.877C239.462 144.333 238.906 144.681 238.287 144.922C237.669 145.156 236.969 145.273 236.188 145.273C234.456 145.273 233.102 144.707 232.125 143.574C231.148 142.435 230.66 141.149 230.66 139.717C230.66 138.369 231.074 137.168 231.9 136.113C232.949 134.772 234.352 134.102 236.109 134.102C237.919 134.102 239.365 134.788 240.445 136.162C241.214 137.132 241.604 138.343 241.617 139.795H232.066C232.092 141.032 232.486 142.048 233.248 142.842C234.01 143.63 234.951 144.023 236.07 144.023C236.611 144.023 237.135 143.929 237.643 143.74C238.157 143.551 238.593 143.301 238.951 142.988C239.309 142.676 239.697 142.171 240.113 141.475ZM240.113 138.613C239.931 137.884 239.664 137.301 239.312 136.865C238.967 136.429 238.508 136.077 237.936 135.811C237.363 135.544 236.76 135.41 236.129 135.41C235.087 135.41 234.192 135.745 233.443 136.416C232.896 136.904 232.483 137.637 232.203 138.613H240.113ZM253.326 134.375H254.703V142.842C254.703 144.333 254.573 145.423 254.312 146.113C253.954 147.09 253.333 147.842 252.447 148.369C251.562 148.896 250.497 149.16 249.254 149.16C248.342 149.16 247.522 149.03 246.793 148.77C246.07 148.516 245.481 148.171 245.025 147.734C244.57 147.305 244.15 146.673 243.766 145.84H245.25C245.654 146.543 246.174 147.064 246.812 147.402C247.451 147.741 248.242 147.91 249.186 147.91C250.117 147.91 250.901 147.734 251.539 147.383C252.184 147.038 252.643 146.602 252.916 146.074C253.189 145.547 253.326 144.697 253.326 143.525V142.979C252.812 143.63 252.184 144.131 251.441 144.482C250.699 144.827 249.911 145 249.078 145C248.102 145 247.184 144.759 246.324 144.277C245.465 143.789 244.801 143.135 244.332 142.314C243.863 141.494 243.629 140.592 243.629 139.609C243.629 138.626 243.873 137.712 244.361 136.865C244.85 136.012 245.523 135.339 246.383 134.844C247.249 134.349 248.16 134.102 249.117 134.102C249.911 134.102 250.65 134.268 251.334 134.6C252.024 134.925 252.688 135.465 253.326 136.221V134.375ZM249.293 135.42C248.518 135.42 247.799 135.609 247.135 135.986C246.471 136.357 245.95 136.875 245.572 137.539C245.195 138.197 245.006 138.91 245.006 139.678C245.006 140.843 245.396 141.807 246.178 142.568C246.959 143.33 247.971 143.711 249.215 143.711C250.471 143.711 251.48 143.333 252.242 142.578C253.01 141.823 253.395 140.83 253.395 139.6C253.395 138.799 253.219 138.086 252.867 137.461C252.516 136.829 252.018 136.331 251.373 135.967C250.729 135.602 250.035 135.42 249.293 135.42ZM268.219 134.375V145H266.871V143.174C266.298 143.87 265.654 144.395 264.938 144.746C264.228 145.098 263.45 145.273 262.604 145.273C261.1 145.273 259.814 144.73 258.746 143.643C257.685 142.549 257.154 141.221 257.154 139.658C257.154 138.128 257.691 136.82 258.766 135.732C259.84 134.645 261.132 134.102 262.643 134.102C263.515 134.102 264.303 134.287 265.006 134.658C265.715 135.029 266.337 135.586 266.871 136.328V134.375H268.219ZM262.75 135.42C261.988 135.42 261.285 135.609 260.641 135.986C259.996 136.357 259.482 136.882 259.098 137.559C258.72 138.236 258.531 138.952 258.531 139.707C258.531 140.456 258.723 141.172 259.107 141.855C259.492 142.539 260.006 143.073 260.65 143.457C261.301 143.835 261.998 144.023 262.74 144.023C263.489 144.023 264.199 143.835 264.869 143.457C265.54 143.079 266.054 142.568 266.412 141.924C266.777 141.279 266.959 140.553 266.959 139.746C266.959 138.516 266.552 137.487 265.738 136.66C264.931 135.833 263.935 135.42 262.75 135.42ZM285.797 141.475L286.949 142.08C286.572 142.822 286.135 143.421 285.641 143.877C285.146 144.333 284.589 144.681 283.971 144.922C283.352 145.156 282.652 145.273 281.871 145.273C280.139 145.273 278.785 144.707 277.809 143.574C276.832 142.435 276.344 141.149 276.344 139.717C276.344 138.369 276.757 137.168 277.584 136.113C278.632 134.772 280.035 134.102 281.793 134.102C283.603 134.102 285.048 134.788 286.129 136.162C286.897 137.132 287.288 138.343 287.301 139.795H277.75C277.776 141.032 278.17 142.048 278.932 142.842C279.693 143.63 280.634 144.023 281.754 144.023C282.294 144.023 282.818 143.929 283.326 143.74C283.84 143.551 284.277 143.301 284.635 142.988C284.993 142.676 285.38 142.171 285.797 141.475ZM285.797 138.613C285.615 137.884 285.348 137.301 284.996 136.865C284.651 136.429 284.192 136.077 283.619 135.811C283.046 135.544 282.444 135.41 281.812 135.41C280.771 135.41 279.876 135.745 279.127 136.416C278.58 136.904 278.167 137.637 277.887 138.613H285.797ZM289.85 134.375H291.207V136.211C291.682 135.534 292.171 135.039 292.672 134.727C293.362 134.31 294.088 134.102 294.85 134.102C295.364 134.102 295.852 134.202 296.314 134.404C296.777 134.606 297.154 134.876 297.447 135.215C297.74 135.547 297.994 136.025 298.209 136.65C298.665 135.817 299.234 135.186 299.918 134.756C300.602 134.32 301.337 134.102 302.125 134.102C302.861 134.102 303.508 134.287 304.068 134.658C304.635 135.029 305.055 135.547 305.328 136.211C305.602 136.875 305.738 137.871 305.738 139.199V145H304.342V139.199C304.342 138.06 304.26 137.279 304.098 136.855C303.935 136.426 303.655 136.081 303.258 135.82C302.867 135.56 302.398 135.43 301.852 135.43C301.188 135.43 300.579 135.625 300.025 136.016C299.479 136.406 299.078 136.927 298.824 137.578C298.57 138.229 298.443 139.316 298.443 140.84V145H297.086V139.561C297.086 138.278 297.005 137.409 296.842 136.953C296.686 136.491 296.409 136.123 296.012 135.85C295.615 135.57 295.143 135.43 294.596 135.43C293.964 135.43 293.372 135.622 292.818 136.006C292.271 136.383 291.865 136.895 291.598 137.539C291.337 138.184 291.207 139.17 291.207 140.498V145H289.85V134.375ZM324.762 134.375V145H323.414V143.174C322.841 143.87 322.197 144.395 321.48 144.746C320.771 145.098 319.993 145.273 319.146 145.273C317.643 145.273 316.357 144.73 315.289 143.643C314.228 142.549 313.697 141.221 313.697 139.658C313.697 138.128 314.234 136.82 315.309 135.732C316.383 134.645 317.675 134.102 319.186 134.102C320.058 134.102 320.846 134.287 321.549 134.658C322.258 135.029 322.88 135.586 323.414 136.328V134.375H324.762ZM319.293 135.42C318.531 135.42 317.828 135.609 317.184 135.986C316.539 136.357 316.025 136.882 315.641 137.559C315.263 138.236 315.074 138.952 315.074 139.707C315.074 140.456 315.266 141.172 315.65 141.855C316.035 142.539 316.549 143.073 317.193 143.457C317.844 143.835 318.541 144.023 319.283 144.023C320.032 144.023 320.742 143.835 321.412 143.457C322.083 143.079 322.597 142.568 322.955 141.924C323.32 141.279 323.502 140.553 323.502 139.746C323.502 138.516 323.095 137.487 322.281 136.66C321.474 135.833 320.478 135.42 319.293 135.42ZM329.039 130.43H330.416V134.375H332.584V135.547H330.416V145H329.039V135.547H327.174V134.375H329.039V130.43ZM343.57 141.475L344.723 142.08C344.345 142.822 343.909 143.421 343.414 143.877C342.919 144.333 342.363 144.681 341.744 144.922C341.126 145.156 340.426 145.273 339.645 145.273C337.913 145.273 336.559 144.707 335.582 143.574C334.605 142.435 334.117 141.149 334.117 139.717C334.117 138.369 334.531 137.168 335.357 136.113C336.406 134.772 337.809 134.102 339.566 134.102C341.376 134.102 342.822 134.788 343.902 136.162C344.671 137.132 345.061 138.343 345.074 139.795H335.523C335.549 141.032 335.943 142.048 336.705 142.842C337.467 143.63 338.408 144.023 339.527 144.023C340.068 144.023 340.592 143.929 341.1 143.74C341.614 143.551 342.05 143.301 342.408 142.988C342.766 142.676 343.154 142.171 343.57 141.475ZM343.57 138.613C343.388 137.884 343.121 137.301 342.77 136.865C342.424 136.429 341.965 136.077 341.393 135.811C340.82 135.544 340.217 135.41 339.586 135.41C338.544 135.41 337.649 135.745 336.9 136.416C336.354 136.904 335.94 137.637 335.66 138.613H343.57ZM340.27 129.395H342.369L339.488 132.402H338.141L340.27 129.395ZM194.986 155.635H196.666L200.104 161.24L203.57 155.635H205.23L200.953 162.598L205.514 170H203.834L200.104 163.975L196.354 170H194.674L199.254 162.598L194.986 155.635ZM223.863 155.273V170H222.516V168.174C221.943 168.87 221.298 169.395 220.582 169.746C219.872 170.098 219.094 170.273 218.248 170.273C216.744 170.273 215.458 169.73 214.391 168.643C213.329 167.549 212.799 166.221 212.799 164.658C212.799 163.128 213.336 161.82 214.41 160.732C215.484 159.645 216.777 159.102 218.287 159.102C219.16 159.102 219.947 159.287 220.65 159.658C221.36 160.029 221.982 160.586 222.516 161.328V155.273H223.863ZM218.395 160.42C217.633 160.42 216.93 160.609 216.285 160.986C215.641 161.357 215.126 161.882 214.742 162.559C214.365 163.236 214.176 163.952 214.176 164.707C214.176 165.456 214.368 166.172 214.752 166.855C215.136 167.539 215.65 168.073 216.295 168.457C216.946 168.835 217.643 169.023 218.385 169.023C219.133 169.023 219.843 168.835 220.514 168.457C221.184 168.079 221.699 167.568 222.057 166.924C222.421 166.279 222.604 165.553 222.604 164.746C222.604 163.516 222.197 162.487 221.383 161.66C220.576 160.833 219.579 160.42 218.395 160.42ZM227.447 155C227.76 155 228.027 155.111 228.248 155.332C228.469 155.553 228.58 155.82 228.58 156.133C228.58 156.439 228.469 156.702 228.248 156.924C228.027 157.145 227.76 157.256 227.447 157.256C227.141 157.256 226.878 157.145 226.656 156.924C226.435 156.702 226.324 156.439 226.324 156.133C226.324 155.82 226.435 155.553 226.656 155.332C226.878 155.111 227.141 155 227.447 155ZM226.764 159.375H228.141V170H226.764V159.375ZM241.559 159.375V170H240.211V168.174C239.638 168.87 238.993 169.395 238.277 169.746C237.568 170.098 236.79 170.273 235.943 170.273C234.439 170.273 233.154 169.73 232.086 168.643C231.025 167.549 230.494 166.221 230.494 164.658C230.494 163.128 231.031 161.82 232.105 160.732C233.18 159.645 234.472 159.102 235.982 159.102C236.855 159.102 237.643 159.287 238.346 159.658C239.055 160.029 239.677 160.586 240.211 161.328V159.375H241.559ZM236.09 160.42C235.328 160.42 234.625 160.609 233.98 160.986C233.336 161.357 232.822 161.882 232.438 162.559C232.06 163.236 231.871 163.952 231.871 164.707C231.871 165.456 232.063 166.172 232.447 166.855C232.831 167.539 233.346 168.073 233.99 168.457C234.641 168.835 235.338 169.023 236.08 169.023C236.829 169.023 237.538 168.835 238.209 168.457C238.88 168.079 239.394 167.568 239.752 166.924C240.117 166.279 240.299 165.553 240.299 164.746C240.299 163.516 239.892 162.487 239.078 161.66C238.271 160.833 237.275 160.42 236.09 160.42ZM249.986 160.537L249.107 161.445C248.378 160.736 247.665 160.381 246.969 160.381C246.526 160.381 246.145 160.527 245.826 160.82C245.514 161.113 245.357 161.455 245.357 161.846C245.357 162.191 245.488 162.52 245.748 162.832C246.008 163.151 246.555 163.525 247.389 163.955C248.404 164.482 249.094 164.99 249.459 165.479C249.817 165.973 249.996 166.53 249.996 167.148C249.996 168.021 249.69 168.76 249.078 169.365C248.466 169.971 247.701 170.273 246.783 170.273C246.171 170.273 245.585 170.14 245.025 169.873C244.472 169.606 244.013 169.238 243.648 168.77L244.508 167.793C245.204 168.581 245.943 168.975 246.725 168.975C247.271 168.975 247.737 168.799 248.121 168.447C248.505 168.096 248.697 167.682 248.697 167.207C248.697 166.816 248.57 166.468 248.316 166.162C248.062 165.863 247.49 165.485 246.598 165.029C245.641 164.535 244.99 164.046 244.645 163.564C244.299 163.083 244.127 162.533 244.127 161.914C244.127 161.107 244.4 160.436 244.947 159.902C245.501 159.368 246.197 159.102 247.037 159.102C248.014 159.102 248.997 159.58 249.986 160.537ZM254.537 155.273V166.406H253.121V155.273H254.537ZM253.844 167.852C254.176 167.852 254.459 167.969 254.693 168.203C254.928 168.438 255.045 168.724 255.045 169.062C255.045 169.395 254.928 169.681 254.693 169.922C254.459 170.156 254.176 170.273 253.844 170.273C253.512 170.273 253.229 170.156 252.994 169.922C252.76 169.681 252.643 169.395 252.643 169.062C252.643 168.724 252.76 168.438 252.994 168.203C253.229 167.969 253.512 167.852 253.844 167.852Z" fill="black"/>
</svg>
